<svg xmlns="http://www.w3.org/2000/svg" width="123" height="103" viewBox="0 0 123 103">
    <g fill="none" fill-rule="evenodd">
        <path fill="#F5D4A4" fill-rule="nonzero" d="M26.742 33.733l2.125-.687c-.13.122-.709.303-1.245.465-.537.162-.987.282-.772.262 1.33-.323 1.137-.201.879-.1-.279.12-.643.201-.085.162-.171.02-.323.1-.988.14.58-.04.623-.02.558 0-.064.02-.214.04-.108.06.28.021.323 0 .666-.02 0 0 .065.041.108.081.043.041.086.101.086.101-.387.04-.945-.02-1.01-.08-.085.04-.214.08-.386.14-.043.021-.063.021-.107.041-.043.02-.043-.02-.171.122-.108.1-.215.181-.344.282-.064.04-.108.101-.171.142-.237.242-.495.503-.73.766-4.185 4.341-8.8 9.529-12.534 14.051L0 64.821l19.123 6.945c1.76.645 3.498 1.05 5.13 1.291.407.06.794.101 1.18.142l.58.061c.192.02.364.02.558.04.364.02.729.04 1.072.04h1.008c.344 0 .645-.02.945-.02.301-.02.623-.02.902-.04.28-.02.558-.04.837-.081.129-.02.28-.02.408-.04.129-.02.257-.02.387-.041.193-.02.407-.06.6-.081l-.108.02c.022-.02.044-.06.065-.12.065-.303.043-.344.022-.424-.022-.081-.044-.203-.065-.646.086-.263.172-.243.215-.223.043.021.064.06.171-.222-.107.687-.086.768-.063.848.02.081.063.162-.344.929 0 0 .107-.222.236-.423.129-.223.236-.445.236-.445s-.064.12-.129.262c-.064.141-.15.263-.15.263.172-.243.344-.404.43-.484.085-.081.128-.122.128-.102-.022.02-.129.203-.129.283.129-.081.623-.464 1.074-.787.45-.324.857-.565.622-.303l.108-.101c.107-.1.236-.182.3-.243.235-.181.536-.403.773-.545-.58.445-.301.283.021.101.321-.18.665-.342.02.102.151-.061.28-.081.602-.243.322-.161.88-.444 1.824-1.09-.45.323-.686.525-.965.727-.28.202-.602.403-1.181.707.043.02-.193.221.407-.04l.473-.384c.194-.04.257.02.215.12-.021.101-.15.263-.258.364-.214.202-.236.202.687-.162l1.052-.544c-.108.14-.215.302-2.383 1.23 0 0-.108.041-.236.062l-.257.08c-.108.1-.15.162-.086.182.064.02.257 0 .6-.04l.151-.102c.365-.08.6-.06.687.122.085.162.043.484-.065.888-.107.404-.257.928-.364 1.454-.065.262-.086.524-.108.767 0 .06 0 .121-.021.181 0 .06-.022.142-.022.202 0 .121 0 .243.022.343l.493-.081c.129-.02.258-.06.365-.08.108-.02.15-.02.15-.02 0-.02-.02.302-.064.605-.043.324-.108.666-.108.666.044-.06-.365-.484-.772-.847-.408-.384-.816-.687-.687-.687-.064.101-.15.243-.257.404-.3.464-.644.99-1.03 1.575-.215.342-.45.686-.688 1.049-.235.384-.471.767-.708 1.17-.236.406-.493.829-.75 1.273-.258.444-.495.908-.773 1.373-.258.464-.515.948-.794 1.453l-.171.303-.087.162c-.065.141-.15.302-.215.443l-.107.243-.085.202c-.13.262-.237.585-.366.888-.064.161-.129.342-.17.504l-.087.263-.086.283-.086.282-.042.142-.044.162c-.043.221-.108.423-.15.645l-.129.727-.021.182-.022.201-.042.424-.022.424v.484c0 .325 0 .627.043 1.03.021.182.043.364.064.565.022.182.044.364.086.585.086.425.172.828.3 1.252.15.445.301.889.495 1.332.192.445.45.91.708 1.354.257.444.579.867.9 1.272.323.422.688.787 1.053 1.13l.279.262.15.121.064.06.387.325.086.059.192.162c.15.12.3.222.451.323.15.1.322.202.473.302l.214.142.172.1c.88.505 1.738.848 2.532 1.111.794.243 1.482.384 2.104.504.6.102 1.137.142 1.588.162.43.02.837.04 1.138.02.3 0 .58 0 .729-.02.6-.02 1.202-.06 1.824-.08 1.224-.061 2.469-.102 3.692-.182 1.224-.08 2.447-.162 3.648-.222l1.782-.121 1.738-.121c2.319-.162 4.464-.344 6.417-.485 1.953-.141 3.67-.283 5.109-.363 1.416-.08 2.51-.141 3.219-.141 2.297.201.515 1.05.494 1.17 2.725-.484 1.116-.827 3.434-.949.643.081-.086.546-.43.666 1.008-.16 1.953 0 2.018-.322-1.288-.141-.815-1.03-1.416-1.554l1.48-.081c.365-.021.751-.04 1.03-.06.28-.021.45-.021.45-.021l-.085.545c.644-.02 1.545-1.575 4.464-1.494 4.873-.08 10.045-.445 14.766-.282-.042.161-.3.282-.686.383-.193.06-.408.1-.644.141-.236.04-.494.101-.73.162.644 0 1.589-.061 2.168.181-1.116-.585 1.975-.342 1.095-.605.858-.303 1.802-.485 2.746-.525.945-.04 1.911 0 2.877.06.236.02.472.02.708.04.236.021.472.041.687.062.45.04.9.08 1.352.1.88.041 1.717.02 2.49-.14.107-.283.687-1.636 1.588-3.513.88-1.878 2.081-4.3 3.37-6.703.321-.606.644-1.211.965-1.796.172-.303.322-.585.472-.888.15-.283.323-.566.472-.848.644-1.13 1.246-2.2 1.76-3.109 1.052-1.858 1.825-3.21 1.89-3.553 1.136.222 2.274.464 2.596.625-.214-.383-2.447-.928-3.692-.948l-.343.706c-1.395-.1-1.523-.243-1.652-.404-.13-.16-.237-.342-1.589-.484-.021-.323.58-.423 1.48-.423.452 0 .967.04 1.504.1.536.061 1.116.141 1.674.222-.987-.201-1.953-.524-2.77-.686-.836-.142-1.523-.182-1.974.101-1.803-.485.322-.727-1.888-1.272-.408 0-.837.02-1.31.04-.45.04-.922.081-1.416.1-.966.041-1.932.022-2.833-.241l.043-.101c-.28-.06-.537-.12-.794-.162l-.387-.06c-.128-.02-.258-.02-.365-.04-.493-.04-.945-.061-1.395-.061-.9 0-1.717.08-2.532.162l-1.224.12c-.407.041-.815.082-1.222.101-.837.04-1.718 0-2.683-.16l.429-.202c-1.417-.404-4.078.14-6.568-.203.708.122 1.33.546-.15.646-1.395-.141-2.575-.1-3.648-.08-.537.02-1.052.02-1.567 0-.494 0-1.009-.04-1.503-.142l-1.888.706c-1.203.041-2.812.163-4.743.304-.494.04-.988.08-1.503.12-.515.04-1.052.102-1.61.142-1.094.101-2.275.202-3.476.324-4.83.463-10.41 1.05-15.819 1.533-.686.06-1.351.122-2.038.182-.344.02-.666.06-1.009.081-.322.02-.666.04-.987.081-1.331.1-2.64.202-3.906.282-1.267.08-2.511.141-3.714.222-.15 0-.279.02-.429.02h-.02v.525l.02.808.022 1.595v1.958c0 .464 0 .929-.022 1.392 0 .344-.02.687-.02 1.03 0 .263-.022.525-.044.787 0 .202-.021.404-.043.606l-.022.263-.021.242c-.064.626-.171 1.05-.258 1.353-.085.302-.17.524-.257.666-.022.06-.086.1-.043.162v.04c0 .02 0 0-.021 0l-.022-.02-.043-.021-.021-.02h-.022c.257-.06.065-.02.129-.02-.15.14-.129.06.15 0 .279-.082.795-.121 1.438-.061.644.06 1.438.222 2.254.445.214.06.407.12.623.18.192.062.407.142.622.203.193.081.407.141.6.221.193.081.408.162.559.263.085.06.17.101.257.162l.129.081.065.04c.021.02.042 0 .063.02.194.02.388.04.58.04h.043c1.717.869-3.777-1.938 3.841 1.959v-.02l.022-.04.043-.061.065-.141c.193-.364.386-.728.579-1.071.086-.181.172-.342.279-.504.086-.162.193-.324.279-.485.387-.626.708-1.211 1.03-1.737.322-.504.623-.968.88-1.351l-.064.282c.086-.141.193-.303.279-.444l.065-.121.17-.243c.108-.161.237-.322.344-.484.473-.646.966-1.312 1.46-1.978.258-.343.515-.686.75-1.03.13-.182.28-.343.43-.525l.45-.545c.624-.726 1.246-1.473 1.89-2.22.171-.182.321-.384.493-.566l.236-.282c.086-.101.172-.182.279-.283.365-.383.73-.767 1.116-1.15.752-.787 1.503-1.576 2.275-2.382.172-.203.408-.404.623-.606.214-.203.43-.404.644-.626.429-.404.88-.828 1.309-1.251.902-.848 1.739-1.676 2.79-2.565 1.008-.888 2.018-1.776 3.047-2.663.259-.223.538-.445.752-.666l.708-.667c.473-.445.945-.91 1.417-1.353.472-.465.945-.91 1.416-1.373l.365-.343.172-.181.043-.04.022-.041.042-.081c.129-.202.237-.404.365-.585.494-.788.988-1.595 1.48-2.403.301-.423.345-.727.495-1.07.129-.323.236-.665.364-.99.13-.342.236-.666.365-1.008.022-.08.065-.182.086-.242l.043-.202.086-.404.322-1.636c.02-.08.02-.12.02-.181l.022-.162.022-.342.065-.666c.02-.223.042-.466.064-.666l.021-.566.022-.566v-.545c-.022-.605-.022-1.251-.043-1.736-.022-.262 0-.525-.022-.767-.021-.263-.064-.606-.321-1.19-.237-.606-.708-1.374-1.138-1.899-.429-.524-.837-.909-1.202-1.211-.365-.302-.687-.504-1.051-.726-.172-.101-.344-.202-.516-.323l-.257-.163-.28-.14c-.385-.202-.75-.404-1.137-.585-.43-.183-.837-.364-1.245-.546-.192-.081-.429-.161-.643-.242-.237-.081-.451-.162-.666-.222-.214-.08-.45-.141-.665-.222-.236-.06-.494-.122-.73-.182l-.708-.182c-.13-.02-.236-.06-.343-.08l-.171-.04c-.065-.02-.13-.02-.194-.04-.537-.082-1.03-.163-1.525-.244-.107-.06-.192-.141-.32-.201-.022-.02-.066-.04-.087-.04l-.107-.041c-.064-.02-.15-.06-.215-.081-.3-.1-.6-.202-.945-.282l-.514-.121c-.171-.041-.344-.082-.558-.101-.43-.04-.859-.081-1.287-.101l-.666-.04-.344-.02h-.365c-.514.04-1.008.06-1.503.1-.493.02-.986.06-1.458.081-.495.04-.966.081-1.417.101 1.846.04.666.626-.901.767-5.666.646-6.01.868-6.331 1.05-.172.1-.344.202-1.224.423-.88.203-2.447.526-5.452 1.11-2.64.566-6.674 1.394-11.61 2.565-1.245.302-2.555.606-3.885.928l-1.03.243-.515.12c-.172.041-.344.081-.516.101-.171.04-.343.081-.515.101l-.129.02-.257.041h-.086c-.086 0-.171.02-.236.02-.065 0-.129.02-.171.02h-.195v.102c0 .181-.021.383-.043.544-.129 1.293-.364 1.98-.43 2.16l6.117 14.152c3.499-4.24 7.491-8.7 11.076-12.395.493-.525.986-1.03 1.48-1.514.73-.747 1.438-1.474 2.147-2.18.343-.364.686-.707 1.03-1.05.171-.162.343-.344.493-.505l.258-.243c.085-.08.17-.18.279-.26.729-.708 1.438-1.394 2.124-2.04 2.662-2.625 5.066-4.724 6.633-6.137.965-1.251 2.253-2.565 3.605-3.877.687-.666 1.374-1.332 2.104-1.998.17-.162.364-.343.557-.505l.58-.504 1.18-1.03 2.382-2.06c.387-.341.795-.685 1.16-1.008l.88-.949c1.159-1.252 2.189-2.463 3.005-3.533l-.022.363c.129-.14.28-.323.43-.504.085-.162.17-.343.257-.525.193-.384.45-.828.729-1.353.279-.504.601-1.07.967-1.695.042-.082.085-.163.128-.223.022-.06.043-.12.086-.18.043-.122.108-.264.15-.405.108-.263.215-.545.322-.828.107-.282.236-.585.343-.867.065-.142.129-.304.194-.445.021-.081.064-.161.085-.221.022-.081.065-.162.087-.223.15-.504.32-1.03.493-1.575.086-.262.172-.544.257-.828.022-.08.043-.12.065-.18l.043-.182c.02-.122.064-.223.086-.343.128-.465.257-.93.364-1.393.108-.405.215-.788.3-1.191.044-.203.087-.385.151-.585.043-.183.086-.365.108-.586.02-.222.02-.445 0-.727-.022-.283-.086-.606-.215-.99-.129-.383-.322-.807-.537-1.19-.215-.404-.494-.747-.73-1.05-.493-.585-.944-.949-1.33-1.251-.193-.142-.365-.283-.558-.385-.193-.1-.387-.221-.559-.322-.708-.404-1.308-.706-1.737-.888l.279.323c-.215-.061-.387-.141-.558-.203-.194-.06-.366-.1-.537-.162-.322-.1-.58-.201-.794-.302-.43-.202-.644-.383-.816-.606-.085-.1-.15-.221-.236-.342-.086-.121-.215-.223-.344-.344C71.555.544 71.19.283 70.567 0c-.214.263-.6.424-1.116.545-.257.06-.536.101-.815.121-.15.02-.3.02-.45.04l-.516.06c-1.416.142-2.919.163-3.692.122L64.3.666h-.557c-.087 0-.15.02-.236.02-.322.04-.688.082-1.052.121-.752.081-1.631.203-2.555.304-.386.06-.793.14-1.223.221-.407.081-.837.162-1.266.243-.837.161-1.717.322-2.576.484-1.695.283-3.455.687-4.957.949l.665-.666c-2.189.565-5.237 1.25-8.07 1.796-2.919.687-5.602 1.192-7.211 1.696-1.76.424-3.756.787-5.989 1.393-1.116.283-2.274.565-3.476.868-1.202.323-2.447.707-3.713 1.07-1.266.384-2.554.767-3.842 1.191-.322.101-.643.222-.966.323l-.923.323c-.386.142-.794.283-1.18.423-1.566.586-3.09 1.233-4.507 1.959l-4.443.04-.494.364s.087 1.211.366 3.048.75 4.28 1.524 6.743c1.545 4.946 4.248 9.952 8.799 10.315l.108.545 1.437-.625c1.868-.424 2.447-1.312 2.533-.768 0 0-.601.203-1.224.424-.621.222-1.223.424-1.223.424 1.846-.525.708.203.15.747.751-.242 1.503-.444 2.168-.525.257-.323-.344-.12-.666-.12.88-.546 1.996-1.494 3.262-1.697.924-.302 1.031-.1 1.181.061.065.081.15.182.365.202.108.02.236 0 .387-.02.085-.02.17-.04.279-.061h.042c.58-.04 1.009.04 1.266.141.28.101.387.243.537.283.086.02.193.02.408-.04-.45.342-.45.342-.666.484.301-.181.473-.262.623-.323.171-.06.343-.14.772-.323-.622.384-1.566.93-2.21 1.293.322-.182.58-.324.794-.385.193-.06.258-.08.279-.06.021 0-.171.141-.28.182h.002z" opacity=".7"/>
        <path fill="#FAF4ED" fill-rule="nonzero" stroke="#1C3749" stroke-dasharray="69.3" stroke-linecap="round" stroke-linejoin="round" stroke-width="2.25" d="M67.134 88.2H26.1V17.1h40.05L81.9 33.419V50.39"/>
        <path fill="#EC8700" fill-rule="nonzero" d="M83.832 60.185c-2.17-.452-3.746-1.383-4.632-1.998-.886.615-2.462 1.546-4.632 1.998-2.194.456-4.02.218-5.073 0-3.21 6.832-2.953 14.278.22 19.16.548.843 3.853 5.858 9.485 7.306 5.632-1.448 8.937-6.463 9.484-7.305 3.174-4.883 3.431-12.33.22-19.161-1.052.218-2.877.456-5.072 0"/>
        <path fill="#1C3749" fill-rule="nonzero" stroke="#1C3749" stroke-width=".5" d="M90.165 80.245c-1.062 1.638-4.035 5.646-8.798 7.525l-1.797.576c-.241.075-.499.075-.74 0l-1.794-.576c-4.766-1.879-7.739-5.886-8.802-7.525-3.582-5.543-3.718-13.788-.344-21.005l.626-1.335 1.413.296c.405.084.813.144 1.23.176.517.052 1.038.06 1.556.024.513-.028 1.02-.096 1.517-.2 1.393-.291 2.751-.88 3.926-1.703l1.042-.73 1.043.73c1.175.824 2.533 1.412 3.926 1.703 1.408.296 2.894.296 4.304 0l1.412-.296.626 1.335c3.373 7.218 3.238 15.462-.346 21.005zm1.747-21.696l-.887-1.898c-.152-.328-.506-.508-.856-.436l-2.008.42c-1.202.251-2.475.251-3.68 0-1.195-.253-2.355-.756-3.363-1.459l-1.477-1.035c-.265-.189-.616-.189-.88 0l-1.478 1.035c-1.008.703-2.168 1.206-3.362 1.458-.393.081-.798.136-1.206.164-.518.04-1.039.032-1.557-.023-.306-.033-.614-.077-.918-.14l-2.007-.42c-.351-.072-.705.108-.857.435l-.887 1.9c-3.607 7.713-3.432 16.576.451 22.578 1.144 1.77 4.365 6.106 9.564 8.145.016.008.032.011.047.016l1.821.583c.268.084.549.128.829.128.28 0 .56-.044.828-.128l1.826-.583c.015-.005.03-.009.046-.016 5.195-2.039 8.417-6.375 9.56-8.145 3.884-6.003 4.06-14.866.451-22.58h0z"/>
        <path fill="#1C3749" fill-rule="nonzero" d="M78.068 78.28c-.203 0-.398-.084-.542-.235l-3.478-3.633c-.298-.312-.298-.819 0-1.131.3-.313.785-.313 1.083 0l2.85 2.976 6.04-8.537c.251-.355.731-.43 1.07-.168.342.263.413.763.162 1.119l-6.57 9.283c-.132.189-.336.306-.558.324l-.057.001"/>
        <path stroke="#1C3749" stroke-linecap="round" stroke-linejoin="round" stroke-width="2.7" d="M37.8 43.2h28.8m-27 13.5h12.6M39.6 69.3h12.6"/>
        <path stroke="#1C3749" stroke-linecap="round" stroke-linejoin="round" stroke-width="2.25" d="M65.7 18v16.2h14.4M30.6 93.6h28.8m4.5 0h.9"/>
    </g>
</svg>
